<svg width="21" height="21" viewBox="0 0 21 21" fill="none" xmlns="http://www.w3.org/2000/svg">
<path d="M2.80884 3.71531C2.80884 3.54768 2.87543 3.38691 2.99396 3.26838C3.1125 3.14984 3.27326 3.08325 3.44089 3.08325H3.91114C4.71175 3.08325 5.19211 3.62176 5.466 4.12235C5.64888 4.45608 5.78119 4.8429 5.88485 5.19348C5.91288 5.19126 5.941 5.19014 5.96912 5.19011H16.5017C17.2012 5.19011 17.7068 5.85924 17.5147 6.53259L15.9742 11.9337C15.836 12.4182 15.5438 12.8444 15.1418 13.148C14.7397 13.4515 14.2497 13.6157 13.7459 13.6158H8.73331C8.22556 13.6159 7.73184 13.4491 7.32806 13.1413C6.92428 12.8334 6.63278 12.4015 6.49836 11.9118L5.85788 9.57574L4.79602 5.99577L4.79518 5.98903C4.66371 5.51119 4.54067 5.0637 4.35695 4.72997C4.18082 4.40551 4.03924 4.34736 3.91199 4.34736H3.44089C3.27326 4.34736 3.1125 4.28077 2.99396 4.16224C2.87543 4.04371 2.80884 3.88294 2.80884 3.71531ZM7.08407 9.26898L7.71697 11.5772C7.84338 12.034 8.25885 12.3517 8.73331 12.3517H13.7459C13.9749 12.3517 14.1977 12.2771 14.3804 12.1392C14.5632 12.0013 14.6961 11.8075 14.7589 11.5874L16.2228 6.45422H6.25144L7.07227 9.22431L7.08407 9.26898Z" fill="#535399"/>
<path d="M9.97216 16.1457C9.97216 16.5927 9.79459 17.0214 9.4785 17.3375C9.16241 17.6536 8.7337 17.8312 8.28668 17.8312C7.83966 17.8312 7.41095 17.6536 7.09486 17.3375C6.77877 17.0214 6.6012 16.5927 6.6012 16.1457C6.6012 15.6987 6.77877 15.27 7.09486 14.9539C7.41095 14.6378 7.83966 14.4602 8.28668 14.4602C8.7337 14.4602 9.16241 14.6378 9.4785 14.9539C9.79459 15.27 9.97216 15.6987 9.97216 16.1457ZM8.70805 16.1457C8.70805 16.0339 8.66366 15.9268 8.58464 15.8477C8.50561 15.7687 8.39843 15.7243 8.28668 15.7243C8.17493 15.7243 8.06775 15.7687 7.98873 15.8477C7.9097 15.9268 7.86531 16.0339 7.86531 16.1457C7.86531 16.2574 7.9097 16.3646 7.98873 16.4436C8.06775 16.5227 8.17493 16.5671 8.28668 16.5671C8.39843 16.5671 8.50561 16.5227 8.58464 16.4436C8.66366 16.3646 8.70805 16.2574 8.70805 16.1457Z" fill="#535399"/>
<path d="M15.8713 16.1457C15.8713 16.5927 15.6938 17.0214 15.3777 17.3375C15.0616 17.6536 14.6329 17.8312 14.1859 17.8312C13.7388 17.8312 13.3101 17.6536 12.994 17.3375C12.6779 17.0214 12.5004 16.5927 12.5004 16.1457C12.5004 15.6987 12.6779 15.27 12.994 14.9539C13.3101 14.6378 13.7388 14.4602 14.1859 14.4602C14.6329 14.4602 15.0616 14.6378 15.3777 14.9539C15.6938 15.27 15.8713 15.6987 15.8713 16.1457ZM14.6072 16.1457C14.6072 16.0339 14.5628 15.9268 14.4838 15.8477C14.4048 15.7687 14.2976 15.7243 14.1859 15.7243C14.0741 15.7243 13.9669 15.7687 13.8879 15.8477C13.8089 15.9268 13.7645 16.0339 13.7645 16.1457C13.7645 16.2574 13.8089 16.3646 13.8879 16.4436C13.9669 16.5227 14.0741 16.5671 14.1859 16.5671C14.2976 16.5671 14.4048 16.5227 14.4838 16.4436C14.5628 16.3646 14.6072 16.2574 14.6072 16.1457Z" fill="#535399"/>
</svg>
