<svg width="11" height="11" viewBox="0 0 11 11" fill="none" xmlns="http://www.w3.org/2000/svg">
<g clip-path="url(#clip0_128_126)">
<path d="M5.49996 8.70837C5.59061 8.70837 5.67922 8.68149 5.7546 8.63113C5.82997 8.58077 5.88871 8.50919 5.9234 8.42544C5.95809 8.34169 5.96717 8.24953 5.94949 8.16062C5.9318 8.07172 5.88815 7.99005 5.82405 7.92595C5.75995 7.86185 5.67828 7.8182 5.58938 7.80051C5.50047 7.78283 5.40831 7.79191 5.32456 7.8266C5.24081 7.86129 5.16923 7.92003 5.11887 7.9954C5.06851 8.07078 5.04163 8.15939 5.04163 8.25004C5.04163 8.3716 5.08991 8.48818 5.17587 8.57413C5.26182 8.66009 5.3784 8.70837 5.49996 8.70837ZM7.79163 8.70837C7.88228 8.70837 7.97089 8.68149 8.04626 8.63113C8.12163 8.58077 8.18038 8.50919 8.21507 8.42544C8.24976 8.34169 8.25884 8.24953 8.24115 8.16062C8.22347 8.07172 8.17982 7.99005 8.11572 7.92595C8.05162 7.86185 7.96995 7.8182 7.88104 7.80051C7.79213 7.78283 7.69998 7.79191 7.61623 7.8266C7.53248 7.86129 7.4609 7.92003 7.41054 7.9954C7.36017 8.07078 7.33329 8.15939 7.33329 8.25004C7.33329 8.3716 7.38158 8.48818 7.46754 8.57413C7.55349 8.66009 7.67007 8.70837 7.79163 8.70837ZM7.79163 6.87504C7.88228 6.87504 7.97089 6.84816 8.04626 6.7978C8.12163 6.74744 8.18038 6.67585 8.21507 6.5921C8.24976 6.50835 8.25884 6.4162 8.24115 6.32729C8.22347 6.23838 8.17982 6.15672 8.11572 6.09262C8.05162 6.02852 7.96995 5.98487 7.88104 5.96718C7.79213 5.9495 7.69998 5.95857 7.61623 5.99326C7.53248 6.02795 7.4609 6.0867 7.41054 6.16207C7.36017 6.23744 7.33329 6.32606 7.33329 6.41671C7.33329 6.53826 7.38158 6.65484 7.46754 6.7408C7.55349 6.82675 7.67007 6.87504 7.79163 6.87504ZM5.49996 6.87504C5.59061 6.87504 5.67922 6.84816 5.7546 6.7978C5.82997 6.74744 5.88871 6.67585 5.9234 6.5921C5.95809 6.50835 5.96717 6.4162 5.94949 6.32729C5.9318 6.23838 5.88815 6.15672 5.82405 6.09262C5.75995 6.02852 5.67828 5.98487 5.58938 5.96718C5.50047 5.9495 5.40831 5.95857 5.32456 5.99326C5.24081 6.02795 5.16923 6.0867 5.11887 6.16207C5.06851 6.23744 5.04163 6.32606 5.04163 6.41671C5.04163 6.53826 5.08991 6.65484 5.17587 6.7408C5.26182 6.82675 5.3784 6.87504 5.49996 6.87504ZM8.70829 1.37504H8.24996V0.916707C8.24996 0.79515 8.20167 0.678571 8.11572 0.592617C8.02976 0.506663 7.91318 0.458374 7.79163 0.458374C7.67007 0.458374 7.55349 0.506663 7.46754 0.592617C7.38158 0.678571 7.33329 0.79515 7.33329 0.916707V1.37504H3.66663V0.916707C3.66663 0.79515 3.61834 0.678571 3.53238 0.592617C3.44643 0.506663 3.32985 0.458374 3.20829 0.458374C3.08674 0.458374 2.97016 0.506663 2.8842 0.592617C2.79825 0.678571 2.74996 0.79515 2.74996 0.916707V1.37504H2.29163C1.92695 1.37504 1.57722 1.51991 1.31935 1.77777C1.06149 2.03563 0.916626 2.38537 0.916626 2.75004V9.16671C0.916626 9.53138 1.06149 9.88112 1.31935 10.139C1.57722 10.3968 1.92695 10.5417 2.29163 10.5417H8.70829C9.07297 10.5417 9.4227 10.3968 9.68056 10.139C9.93843 9.88112 10.0833 9.53138 10.0833 9.16671V2.75004C10.0833 2.38537 9.93843 2.03563 9.68056 1.77777C9.4227 1.51991 9.07297 1.37504 8.70829 1.37504ZM9.16663 9.16671C9.16663 9.28826 9.11834 9.40484 9.03238 9.4908C8.94643 9.57675 8.82985 9.62504 8.70829 9.62504H2.29163C2.17007 9.62504 2.05349 9.57675 1.96754 9.4908C1.88158 9.40484 1.83329 9.28826 1.83329 9.16671V5.04171H9.16663V9.16671ZM9.16663 4.12504H1.83329V2.75004C1.83329 2.62848 1.88158 2.5119 1.96754 2.42595C2.05349 2.34 2.17007 2.29171 2.29163 2.29171H2.74996V2.75004C2.74996 2.8716 2.79825 2.98818 2.8842 3.07413C2.97016 3.16009 3.08674 3.20837 3.20829 3.20837C3.32985 3.20837 3.44643 3.16009 3.53238 3.07413C3.61834 2.98818 3.66663 2.8716 3.66663 2.75004V2.29171H7.33329V2.75004C7.33329 2.8716 7.38158 2.98818 7.46754 3.07413C7.55349 3.16009 7.67007 3.20837 7.79163 3.20837C7.91318 3.20837 8.02976 3.16009 8.11572 3.07413C8.20167 2.98818 8.24996 2.8716 8.24996 2.75004V2.29171H8.70829C8.82985 2.29171 8.94643 2.34 9.03238 2.42595C9.11834 2.5119 9.16663 2.62848 9.16663 2.75004V4.12504ZM3.20829 6.87504C3.29894 6.87504 3.38756 6.84816 3.46293 6.7978C3.5383 6.74744 3.59705 6.67585 3.63174 6.5921C3.66643 6.50835 3.6755 6.4162 3.65782 6.32729C3.64013 6.23838 3.59648 6.15672 3.53238 6.09262C3.46828 6.02852 3.38662 5.98487 3.29771 5.96718C3.2088 5.9495 3.11665 5.95857 3.0329 5.99326C2.94915 6.02795 2.87756 6.0867 2.8272 6.16207C2.77684 6.23744 2.74996 6.32606 2.74996 6.41671C2.74996 6.53826 2.79825 6.65484 2.8842 6.7408C2.97016 6.82675 3.08674 6.87504 3.20829 6.87504ZM3.20829 8.70837C3.29894 8.70837 3.38756 8.68149 3.46293 8.63113C3.5383 8.58077 3.59705 8.50919 3.63174 8.42544C3.66643 8.34169 3.6755 8.24953 3.65782 8.16062C3.64013 8.07172 3.59648 7.99005 3.53238 7.92595C3.46828 7.86185 3.38662 7.8182 3.29771 7.80051C3.2088 7.78283 3.11665 7.79191 3.0329 7.8266C2.94915 7.86129 2.87756 7.92003 2.8272 7.9954C2.77684 8.07078 2.74996 8.15939 2.74996 8.25004C2.74996 8.3716 2.79825 8.48818 2.8842 8.57413C2.97016 8.66009 3.08674 8.70837 3.20829 8.70837Z" fill="#FFA454"/>
</g>
<defs>
<clipPath id="clip0_128_126">
<rect width="11" height="11" fill="white"/>
</clipPath>
</defs>
</svg>
