<svg width="12" height="12" viewBox="0 0 12 12" fill="none" xmlns="http://www.w3.org/2000/svg">
<path d="M4.66659 1.33325H1.99992C1.63173 1.33325 1.33325 1.63173 1.33325 1.99992V4.66659C1.33325 5.03478 1.63173 5.33325 1.99992 5.33325H4.66659C5.03478 5.33325 5.33325 5.03478 5.33325 4.66659V1.99992C5.33325 1.63173 5.03478 1.33325 4.66659 1.33325Z" fill="#151875"/>
<path d="M10.0001 1.33325H7.33341C6.96522 1.33325 6.66675 1.63173 6.66675 1.99992V4.66659C6.66675 5.03478 6.96522 5.33325 7.33341 5.33325H10.0001C10.3683 5.33325 10.6667 5.03478 10.6667 4.66659V1.99992C10.6667 1.63173 10.3683 1.33325 10.0001 1.33325Z" fill="#151875"/>
<path d="M4.66659 6.66675H1.99992C1.63173 6.66675 1.33325 6.96522 1.33325 7.33341V10.0001C1.33325 10.3683 1.63173 10.6667 1.99992 10.6667H4.66659C5.03478 10.6667 5.33325 10.3683 5.33325 10.0001V7.33341C5.33325 6.96522 5.03478 6.66675 4.66659 6.66675Z" fill="#151875"/>
<path d="M10.0001 6.66675H7.33341C6.96522 6.66675 6.66675 6.96522 6.66675 7.33341V10.0001C6.66675 10.3683 6.96522 10.6667 7.33341 10.6667H10.0001C10.3683 10.6667 10.6667 10.3683 10.6667 10.0001V7.33341C10.6667 6.96522 10.3683 6.66675 10.0001 6.66675Z" fill="#151875"/>
</svg>
