<svg width="20" height="20" viewBox="0 0 20 20" fill="none" xmlns="http://www.w3.org/2000/svg">
<path d="M16.8771 3.6733C16.0294 2.82541 14.9056 2.30991 13.71 2.22054C12.5145 2.13116 11.3265 2.47385 10.3622 3.18628C9.3464 2.43072 8.08202 2.08811 6.82371 2.22745C5.56539 2.36679 4.40661 2.97772 3.5807 3.93723C2.7548 4.89674 2.32312 6.13354 2.3726 7.39858C2.42209 8.66362 2.94905 9.86293 3.84738 10.755L9.79537 16.703C9.86959 16.7778 9.95789 16.8372 10.0552 16.8777C10.1525 16.9183 10.2568 16.9391 10.3622 16.9391C10.4676 16.9391 10.572 16.9183 10.6693 16.8777C10.7666 16.8372 10.8549 16.7778 10.9291 16.703L16.8771 10.755C17.3422 10.2901 17.7113 9.73812 17.963 9.13056C18.2148 8.52301 18.3444 7.8718 18.3444 7.21414C18.3444 6.55649 18.2148 5.90528 17.963 5.29772C17.7113 4.69017 17.3422 4.13818 16.8771 3.6733ZM15.7513 9.62926L10.3622 15.0104L4.97311 9.62926C4.49821 9.15238 4.1747 8.54589 4.04317 7.88586C3.91164 7.22582 3.97794 6.54165 4.23376 5.91915C4.48958 5.29666 4.92353 4.76357 5.48116 4.38675C6.03879 4.00994 6.69528 3.80618 7.36827 3.80104C8.26734 3.80324 9.12879 4.16218 9.76343 4.79902C9.83765 4.87385 9.92595 4.93325 10.0232 4.97378C10.1205 5.01431 10.2249 5.03518 10.3303 5.03518C10.4357 5.03518 10.54 5.01431 10.6373 4.97378C10.7346 4.93325 10.8229 4.87385 10.8971 4.79902C11.5505 4.23287 12.3945 3.93608 13.2584 3.96872C14.1223 4.00136 14.9415 4.36099 15.5503 4.97482C16.159 5.58865 16.5119 6.41084 16.5373 7.27497C16.5628 8.13911 16.259 8.98064 15.6875 9.62926H15.7513Z" fill="#535399"/>
</svg>
