<svg width="8" height="8" viewBox="0 0 8 8" fill="none" xmlns="http://www.w3.org/2000/svg">
<rect width="8" height="8" rx="3" fill="#19D16F"/>
<path d="M6.23649 2.40329C6.2055 2.37204 6.16863 2.34725 6.12801 2.33032C6.08739 2.3134 6.04382 2.30469 5.99982 2.30469C5.95582 2.30469 5.91225 2.3134 5.87163 2.33032C5.83101 2.34725 5.79414 2.37204 5.76315 2.40329L3.27982 4.88995L2.23649 3.84329C2.20431 3.81221 2.16633 3.78777 2.12471 3.77137C2.0831 3.75497 2.03865 3.74692 1.99393 3.7477C1.9492 3.74847 1.90506 3.75805 1.86404 3.77588C1.82301 3.79371 1.7859 3.81945 1.75482 3.85162C1.72374 3.88379 1.6993 3.92177 1.6829 3.96339C1.6665 4.00501 1.65846 4.04945 1.65923 4.09418C1.66 4.13891 1.66958 4.18304 1.68741 4.22407C1.70524 4.2651 1.73098 4.30221 1.76315 4.33329L3.04315 5.61329C3.07414 5.64453 3.11101 5.66933 3.15163 5.68625C3.19225 5.70317 3.23582 5.71189 3.27982 5.71189C3.32382 5.71189 3.36739 5.70317 3.40801 5.68625C3.44863 5.66933 3.4855 5.64453 3.51649 5.61329L6.23649 2.89329C6.27032 2.86207 6.29732 2.82419 6.31579 2.78202C6.33426 2.73986 6.3438 2.69432 6.3438 2.64829C6.3438 2.60225 6.33426 2.55672 6.31579 2.51455C6.29732 2.47238 6.27032 2.4345 6.23649 2.40329V2.40329Z" fill="white"/>
</svg>
