<svg width="18" height="18" viewBox="0 0 18 18" fill="none" xmlns="http://www.w3.org/2000/svg">
<path d="M10.8074 11.4865V9.35746H12.9364C13.1246 9.35746 13.3051 9.28269 13.4382 9.1496C13.5713 9.01651 13.6461 8.836 13.6461 8.64778C13.6461 8.45956 13.5713 8.27905 13.4382 8.14596C13.3051 8.01287 13.1246 7.9381 12.9364 7.9381H10.8074V5.80907C10.8074 5.62085 10.7326 5.44034 10.5995 5.30725C10.4664 5.17416 10.2859 5.09939 10.0977 5.09939C9.90949 5.09939 9.72898 5.17416 9.59589 5.30725C9.4628 5.44034 9.38803 5.62085 9.38803 5.80907V7.9381H7.259C7.07078 7.9381 6.89027 8.01287 6.75718 8.14596C6.62409 8.27905 6.54932 8.45956 6.54932 8.64778C6.54932 8.836 6.62409 9.01651 6.75718 9.1496C6.89027 9.28269 7.07078 9.35746 7.259 9.35746H9.38803V11.4865C9.38803 11.6747 9.4628 11.8552 9.59589 11.9883C9.72898 12.1214 9.90949 12.1962 10.0977 12.1962C10.2859 12.1962 10.4664 12.1214 10.5995 11.9883C10.7326 11.8552 10.8074 11.6747 10.8074 11.4865ZM3.5048 16.2484L6.11642 13.6155C7.39071 14.6375 9.00814 15.1325 10.6361 14.9985C12.2641 14.8646 13.779 14.1121 14.8691 12.8956C15.9593 11.6791 16.5419 10.0911 16.4972 8.45824C16.4526 6.82535 15.784 5.27165 14.6289 4.11659C13.4738 2.96153 11.9201 2.29292 10.2872 2.24824C8.65436 2.20356 7.06641 2.7862 5.84992 3.87637C4.63342 4.96653 3.88085 6.48135 3.74694 8.10935C3.61303 9.73734 4.10796 11.3548 5.12996 12.6291L2.51835 15.2407C2.45183 15.3067 2.39904 15.3851 2.36301 15.4716C2.32698 15.5581 2.30843 15.6509 2.30843 15.7446C2.30843 15.8382 2.32698 15.931 2.36301 16.0175C2.39904 16.104 2.45183 16.1824 2.51835 16.2484C2.65068 16.3763 2.82753 16.4478 3.01158 16.4478C3.19562 16.4478 3.37247 16.3763 3.5048 16.2484ZM5.12996 8.64778C5.12996 7.66525 5.42132 6.70479 5.96718 5.88785C6.51304 5.07091 7.2889 4.43418 8.19663 4.05818C9.10437 3.68219 10.1032 3.58381 11.0669 3.77549C12.0305 3.96717 12.9157 4.4403 13.6104 5.13505C14.3052 5.82981 14.7783 6.71497 14.97 7.67862C15.1617 8.64227 15.0633 9.64111 14.6873 10.5489C14.3113 11.4566 13.6746 12.2324 12.8576 12.7783C12.0407 13.3242 11.0802 13.6155 10.0977 13.6155C8.78018 13.6155 7.51661 13.0921 6.58498 12.1605C5.65335 11.2289 5.12996 9.96531 5.12996 8.64778Z" fill="#535399"/>
</svg>
