<svg width="17" height="17" viewBox="0 0 17 17" fill="none" xmlns="http://www.w3.org/2000/svg">
<path d="M16.2188 6.23346L11.3616 5.52755L9.19033 1.12568C9.13102 1.00516 9.03346 0.907597 8.91294 0.848293C8.61068 0.699077 8.24338 0.823424 8.09225 1.12568L5.92097 5.52755L1.0638 6.23346C0.929884 6.25259 0.80745 6.31572 0.713712 6.41137C0.600388 6.52785 0.537941 6.68455 0.540093 6.84705C0.542245 7.00954 0.60882 7.16454 0.72519 7.27797L4.23942 10.7042L3.40916 15.5422C3.3897 15.6548 3.40215 15.7705 3.44511 15.8764C3.48808 15.9822 3.55984 16.0739 3.65225 16.141C3.74466 16.2081 3.85403 16.248 3.96796 16.2561C4.08188 16.2642 4.19581 16.2403 4.29681 16.1869L8.64129 13.9028L12.9858 16.1869C13.1044 16.2501 13.2421 16.2711 13.3741 16.2481C13.707 16.1908 13.9308 15.8751 13.8734 15.5422L13.0432 10.7042L16.5574 7.27797C16.653 7.18423 16.7162 7.0618 16.7353 6.92789C16.787 6.59311 16.5536 6.2832 16.2188 6.23346Z" fill="#B2B2B2"/>
</svg>
