<svg width="17" height="17" viewBox="0 0 17 17" fill="none" xmlns="http://www.w3.org/2000/svg">
<path d="M16.1695 6.23346L11.3123 5.52755L9.14101 1.12568C9.08171 1.00516 8.98414 0.907597 8.86362 0.848293C8.56137 0.699077 8.19406 0.823424 8.04293 1.12568L5.87165 5.52755L1.01448 6.23346C0.880567 6.25259 0.758134 6.31572 0.664395 6.41137C0.551071 6.52785 0.488624 6.68455 0.490777 6.84705C0.492929 7.00954 0.559504 7.16454 0.675874 7.27797L4.1901 10.7042L3.35985 15.5422C3.34038 15.6548 3.35283 15.7705 3.3958 15.8764C3.43876 15.9822 3.51052 16.0739 3.60293 16.141C3.69535 16.2081 3.80472 16.248 3.91864 16.2561C4.03257 16.2642 4.14649 16.2403 4.24749 16.1869L8.59197 13.9028L12.9365 16.1869C13.0551 16.2501 13.1928 16.2711 13.3248 16.2481C13.6577 16.1908 13.8815 15.8751 13.8241 15.5422L12.9938 10.7042L16.5081 7.27797C16.6037 7.18423 16.6669 7.0618 16.686 6.92789C16.7376 6.59311 16.5042 6.2832 16.1695 6.23346Z" fill="#FFC416"/>
</svg>
